<svg width="32" height="32" viewBox="0 0 32 32" fill="none" xmlns="http://www.w3.org/2000/svg">
<rect width="32" height="32" rx="16" fill="white"/>
<path d="M12.5 15C12.5 14.7239 12.7239 14.5 13 14.5H14.5V13C14.5 12.7239 14.7239 12.5 15 12.5C15.2761 12.5 15.5 12.7239 15.5 13V14.5H17C17.2761 14.5 17.5 14.7239 17.5 15C17.5 15.2761 17.2761 15.5 17 15.5H15.5V17C15.5 17.2761 15.2761 17.5 15 17.5C14.7239 17.5 14.5 17.2761 14.5 17V15.5H13C12.7239 15.5 12.5 15.2761 12.5 15Z" fill="black"/>
<path fill-rule="evenodd" clip-rule="evenodd" d="M15 10C12.2386 10 10 12.2386 10 15C10 17.7614 12.2386 20 15 20C16.2007 20 17.3024 19.5768 18.1643 18.8715L21.1465 21.8535C21.3417 22.0488 21.6583 22.0488 21.8535 21.8535C22.0488 21.6583 22.0488 21.3417 21.8535 21.1465L18.8715 18.1643C19.5768 17.3024 20 16.2007 20 15C20 12.2386 17.7614 10 15 10ZM11 15C11 12.7909 12.7909 11 15 11C17.2092 11 19 12.7909 19 15C19 17.2092 17.2092 19 15 19C12.7909 19 11 17.2092 11 15Z" fill="black"/>
</svg>
